<?xml version="1.0" standalone="no"?>
<!DOCTYPE svg PUBLIC "-//W3C//DTD SVG 20010904//EN"
 "http://www.w3.org/TR/2001/REC-SVG-20010904/DTD/svg10.dtd">
<svg version="1.0" xmlns="http://www.w3.org/2000/svg"
 width="640.000000pt" height="427.000000pt" viewBox="0 0 640.000000 427.000000"
 preserveAspectRatio="xMidYMid meet">

<g transform="translate(0.000000,427.000000) scale(0.100000,-0.100000)"
fill="#000000" stroke="none">
<path d="M0 3095 c0 -1168 0 -1175 20 -1175 17 0 20 -7 20 -40 0 -22 -4 -40
-9 -40 -5 0 -7 -9 -4 -20 4 -14 0 -20 -11 -20 -11 0 -16 -9 -16 -31 0 -24 4
-29 18 -25 9 3 31 8 47 12 70 15 216 69 290 107 55 29 102 63 150 112 63 63
80 89 169 265 262 518 402 711 621 856 56 37 130 71 120 55 -3 -6 -12 -11 -18
-11 -24 0 -164 -102 -236 -172 -124 -122 -305 -385 -387 -563 -15 -33 -33 -67
-39 -75 -6 -8 -27 -51 -45 -95 -19 -44 -40 -89 -47 -101 -7 -11 -10 -23 -7
-27 4 -3 -4 -28 -17 -54 -12 -26 -23 -50 -23 -53 -1 -3 -9 -26 -20 -50 -10
-25 -22 -54 -27 -65 -4 -11 -17 -41 -28 -67 -12 -26 -21 -50 -21 -53 0 -4 -9
-20 -21 -36 -11 -16 -22 -39 -24 -51 -3 -13 -9 -24 -14 -26 -6 -2 -7 -11 -4
-19 5 -12 2 -15 -10 -10 -9 3 -17 2 -17 -3 0 -13 12 -13 49 3 17 7 28 17 24
22 -5 4 -2 5 5 1 18 -10 131 72 179 131 51 63 64 84 174 303 155 311 298 528
435 664 74 74 198 160 280 194 62 26 188 55 211 49 12 -3 10 -5 -7 -6 -52 -2
-177 -44 -248 -82 -95 -50 -173 -111 -248 -191 -149 -159 -233 -293 -453 -718
-44 -85 -98 -178 -120 -207 -107 -138 -303 -239 -561 -288 -47 -9 -95 -18
-108 -21 l-22 -4 0 -735 0 -735 3200 0 3200 0 0 2135 0 2135 -3200 0 -3200 0
0 -1175z m1810 1120 c19 -19 32 -35 29 -35 -3 0 -20 16 -39 35 -19 19 -32 35
-29 35 3 0 20 -16 39 -35z m90 -92 l25 -28 -35 30 c-55 47 -56 48 -35 37 11
-6 31 -23 45 -39z m180 -150 c0 -6 -82 54 -122 89 -18 16 2 4 45 -28 42 -31
77 -58 77 -61z m110 -69 c0 -2 -9 0 -20 6 -11 6 -20 13 -20 16 0 2 9 0 20 -6
11 -6 20 -13 20 -16z m135 -77 c6 -6 -17 4 -50 22 -33 18 -64 38 -70 44 -5 5
17 -5 50 -23 33 -18 65 -38 70 -43z m55 -22 c17 -9 30 -18 30 -21 0 -4 -59 23
-69 32 -10 9 13 3 39 -11z m70 -35 c8 -5 11 -10 5 -10 -5 0 -17 5 -25 10 -8 5
-10 10 -5 10 6 0 17 -5 25 -10z m936 -205 c115 -68 260 -201 392 -360 170
-206 316 -320 480 -375 49 -16 101 -31 113 -31 17 -1 19 -3 7 -6 -27 -7 -136
24 -217 63 -135 63 -254 166 -392 339 -139 174 -342 350 -462 400 -21 8 -37
18 -37 20 0 7 68 -22 116 -50z m404 30 c13 -14 21 -25 18 -25 -2 0 -15 11 -28
25 -13 14 -21 25 -18 25 2 0 15 -11 28 -25z m61 -72 c13 -16 12 -17 -3 -4 -17
13 -22 21 -14 21 2 0 10 -8 17 -17z m47 -55 c14 -18 60 -69 102 -113 65 -70
58 -74 -9 -5 -41 41 -132 150 -126 150 4 0 18 -15 33 -32z m227 -224 c17 -14
21 -21 10 -16 -30 16 -61 41 -50 41 6 0 24 -11 40 -25z m-2217 -251 c-21 -2
-57 -2 -80 0 -24 2 -7 4 37 4 44 0 63 -2 43 -4z m100 -10 c-10 -2 -26 -2 -35
0 -10 3 -2 5 17 5 19 0 27 -2 18 -5z m97 -13 c27 -7 27 -8 5 -8 -14 0 -38 4
-55 8 -27 7 -27 8 -5 8 14 0 39 -4 55 -8z m93 -17 c-10 -2 -26 -2 -35 0 -10 3
-2 5 17 5 19 0 27 -2 18 -5z m3376 -233 c94 -151 216 -282 306 -330 14 -7 20
-15 14 -17 -7 -2 -33 11 -59 29 -26 18 -57 40 -69 48 -52 36 -114 117 -239
314 -27 42 -74 105 -105 139 l-56 62 70 -68 c46 -44 95 -107 138 -177z m-3241
223 c-18 -2 -48 -2 -65 0 -18 2 -4 4 32 4 36 0 50 -2 33 -4z m2130 -160 c-13
-2 -33 -2 -45 0 -13 2 -3 4 22 4 25 0 35 -2 23 -4z m395 0 c-32 -2 -84 -2
-115 0 -32 2 -6 3 57 3 63 0 89 -1 58 -3z m145 -10 c-7 -2 -19 -2 -25 0 -7 3
-2 5 12 5 14 0 19 -2 13 -5z m153 -38 c71 -32 128 -72 194 -138 55 -54 77 -84
179 -244 30 -46 87 -115 130 -155 126 -121 254 -187 443 -228 79 -17 84 -19
33 -14 -89 9 -220 50 -306 96 -149 79 -256 189 -379 389 -53 87 -176 215 -243
253 -26 16 -77 39 -115 53 -50 18 -57 23 -28 18 21 -4 63 -17 92 -30z m-1600
-177 c93 -184 284 -422 475 -593 112 -101 295 -229 437 -307 39 -22 72 -42 72
-45 0 -2 -44 19 -97 48 -372 199 -688 506 -887 858 -40 69 -40 71 -26 71 5 0
17 -15 26 -32z m242 16 c17 -4 42 -25 67 -57 125 -161 280 -311 457 -444 62
-47 85 -70 81 -82 -3 -11 -2 -13 4 -3 7 9 24 4 71 -24 34 -21 60 -39 57 -42
-2 -3 -10 -1 -17 5 -35 25 -64 31 -83 16 -19 -15 -19 -15 3 -10 12 3 22 2 22
-3 0 -4 -22 -8 -50 -8 -34 0 -48 4 -43 12 4 6 -1 5 -10 -3 -11 -9 -17 -10 -17
-2 0 6 -9 11 -20 11 -11 0 -23 7 -26 15 -4 8 -14 15 -25 15 -10 0 -22 6 -26
14 -8 15 -11 16 -37 16 -7 0 -25 11 -39 24 -15 14 -37 28 -49 32 -21 6 -42 22
-142 110 -21 19 -41 34 -45 34 -4 0 -15 15 -25 33 -11 17 -33 45 -49 61 -17
15 -39 44 -50 64 -10 19 -25 42 -33 49 -8 8 -14 23 -14 34 0 17 -35 113 -47
128 -1 2 -20 8 -40 12 -28 6 -19 7 30 3 37 -2 80 -7 95 -10z m1903 -81 c13
-16 12 -17 -3 -4 -17 13 -22 21 -14 21 2 0 10 -8 17 -17z m-1553 -32 c160 -79
347 -140 501 -162 78 -11 288 -8 366 6 l30 5 -30 -11 c-16 -6 -95 -13 -175
-16 -172 -6 -278 9 -441 63 -94 31 -357 151 -336 153 4 1 42 -16 85 -38z
m1674 -85 c25 -38 49 -49 85 -40 14 4 23 2 23 -5 0 -6 8 -11 18 -11 15 1 15 2
-3 16 -11 8 -30 12 -42 9 -13 -3 -32 0 -43 7 -26 17 -26 32 1 18 11 -7 27 -9
35 -6 14 5 166 -62 172 -76 2 -4 11 -5 20 -2 9 3 6 -2 -8 -11 -23 -15 -24 -15
-2 -10 12 4 22 2 22 -3 0 -4 32 -19 70 -31 73 -24 86 -41 48 -62 -24 -13 -149
-19 -142 -8 4 8 -32 19 -62 19 -12 0 -25 7 -28 16 -4 9 -13 14 -21 10 -21 -8
-45 3 -45 20 0 8 -10 14 -23 14 -17 0 -26 9 -36 35 -7 19 -17 33 -22 30 -16
-10 -42 25 -49 66 -9 48 3 50 32 5z m-705 -52 c-3 -3 -12 -4 -19 -1 -8 3 -5 6
6 6 11 1 17 -2 13 -5z m-40 -10 c-3 -3 -12 -4 -19 -1 -8 3 -5 6 6 6 11 1 17
-2 13 -5z m1098 -54 c4 -6 -6 -10 -22 -9 -25 0 -26 1 -8 9 11 5 21 9 22 9 1 1
5 -3 8 -9z m145 -85 c0 -8 -4 -15 -10 -15 -5 0 -10 7 -10 15 0 8 5 15 10 15 6
0 10 -7 10 -15z m-4867 -82 c-7 -2 -21 -2 -30 0 -10 3 -4 5 12 5 17 0 24 -2
18 -5z m110 -10 c-7 -2 -21 -2 -30 0 -10 3 -4 5 12 5 17 0 24 -2 18 -5z m-436
-172 c220 -89 409 -126 588 -117 113 5 274 40 335 71 17 9 34 15 36 12 7 -7
-85 -44 -172 -69 -69 -20 -101 -23 -254 -23 -159 0 -185 3 -281 28 -58 15
-151 45 -207 67 -108 42 -300 134 -317 152 -5 5 32 -11 82 -36 51 -25 137 -64
190 -85z m5171 32 c-16 -2 -40 -2 -55 0 -16 2 -3 4 27 4 30 0 43 -2 28 -4z"/>
<path d="M4345 2020 c3 -5 11 -10 16 -10 6 0 7 5 4 10 -3 6 -11 10 -16 10 -6
0 -7 -4 -4 -10z"/>
<path d="M6008 2293 c7 -3 16 -2 19 1 4 3 -2 6 -13 5 -11 0 -14 -3 -6 -6z"/>
<path d="M6005 2270 c-4 -6 3 -10 14 -10 25 0 27 6 6 13 -8 4 -17 2 -20 -3z"/>
<path d="M6028 2243 c7 -3 16 -2 19 1 4 3 -2 6 -13 5 -11 0 -14 -3 -6 -6z"/>
<path d="M617 2093 c-4 -3 -7 -11 -7 -17 0 -6 5 -5 12 2 6 6 9 14 7 17 -3 3
-9 2 -12 -2z"/>
</g>
</svg>
